# xmcd CD database file
#
# Track frame offsets:
#	150
#	8337
#	23557
#	33682
#	41247
#	45962
#	50895
#	63717
#	86645
#	98942
#	112450
#	119670
#	133092
#	137400
#	146512
#	152665
#	158100
#	171672
#	179530
#	194117
#	209690
#	219385
#	234112
#	250605
#	260410
#	276357
#	286465
#	296830
#	305042
#	317265
#
# Disc length: 4391 seconds
#
# Revision: 0
# Processed by: cddbd v1.5.1PL0 Copyright (c) Steve Scherf et al.
# Submitted via: CDex 1.51
#
DISCID=d411251e
DTITLE=Sonoton Authentic Seres - SAS 065 - Authentic Russia 2
DYEAR=1997
DGENRE=Contentum
TTITLE0=Balalaika with Orchestra - Oh, how the little river flows
TTITLE1=Balalaika with Orchestra - Many paths across the field
TTITLE2=Balalaika Solo - Go on playing, my Wolynka
TTITLE3=Balalaika Solo - Lover's tears
TTITLE4=Balalaika Solo - Lover's tears 2
TTITLE5=Balalaika Solo - Happy balalaika
TTITLE6=Balalaika with Small Orchestra group - Simuschka
TTITLE7=Balalaika with Small Orchestra group - Sunrise colours
TTITLE8=Balalaika with Small Orchestra group - Walenki
TTITLE9=Balalaika with Small Orchestra group - Blossoms
TTITLE10=Balalaika with Small Orchestra group - Anything but autumn
TTITLE11=Bajan (accordion) solo - Barynija
TTITLE12=Bajan (accordion) solo - Kabardinka
TTITLE13=Bajan (accordion) solo - Russian dance
TTITLE14=Bajan (accordion) solo - Ziganotschka
TTITLE15=Bajan (accordion) solo - Hopatschok
TTITLE16=Bajan (accordion) solo - Lewonicha
TTITLE17=Cossack Choir - Let's remember, brothers!
TTITLE18=Cossack Choir - Little clouds in the sky
TTITLE19=Cossack Choir - The wide river Don
TTITLE20=Cossack Choir - Kalinuschka
TTITLE21=Cossack Choir - Over the Valley
TTITLE22=Cossack Choir - Oh Don Iwanowitsch
TTITLE23=Cossack Choir - Oh my plait
TTITLE24=Other Vocals - Dosada
TTITLE25=Other Vocals - Sing a song, Nightingale
TTITLE26=Other Vocals - The last time
TTITLE27=Other Vocals - Go for walk, Nastja
TTITLE28=Other Vocals - I'm going to leave
TTITLE29=Other Vocals - Along the garden
EXTD=YEAR: 1997
EXTT0=
EXTT1=
EXTT2=
EXTT3=
EXTT4=
EXTT5=
EXTT6=
EXTT7=
EXTT8=
EXTT9=
EXTT10=
EXTT11=
EXTT12=
EXTT13=
EXTT14=
EXTT15=
EXTT16=
EXTT17=
EXTT18=
EXTT19=
EXTT20=
EXTT21=
EXTT22=
EXTT23=
EXTT24=
EXTT25=
EXTT26=
EXTT27=
EXTT28=
EXTT29=
PLAYORDER=
